<svg width="33" height="33" viewBox="0 0 33 33" fill="none" xmlns="http://www.w3.org/2000/svg">
<g clip-path="url(#clip0_1884_722)">
<path fill-rule="evenodd" clip-rule="evenodd" d="M5.26489 13.137L17.1188 15.3593C17.3402 15.4002 17.5403 15.5173 17.6843 15.6903C17.8283 15.8633 17.9072 16.0814 17.9072 16.3065C17.9072 16.5316 17.8283 16.7496 17.6843 16.9226C17.5403 17.0957 17.3402 17.2128 17.1188 17.2536L5.26489 19.4776L0.564262 28.874C-0.4517 30.9059 1.70502 33.0627 3.73694 32.0467L30.9967 18.42C32.7407 17.5496 32.7407 15.0633 30.9967 14.1914L3.73694 0.566261C1.70502 -0.449701 -0.4517 1.70702 0.564262 3.73894L5.26489 13.137Z" fill="white"/>
</g>
<defs>
<clipPath id="clip0_1884_722">
<rect width="32" height="32" fill="white" transform="translate(0.304688 0.306686)"/>
</clipPath>
</defs>
</svg>
