<svg width="281" height="64" viewBox="0 0 281 64" fill="none" xmlns="http://www.w3.org/2000/svg">
<g filter="url(#filter0_d_482_46)">
<path d="M9.6 16.4L5.88 12.68L9.6 8.948L13.32 12.68L9.6 16.4Z" fill="#0FA8CD"/>
<path d="M23.104 17V8.24H25.924C26.74 8.24 27.388 8.476 27.868 8.948C28.356 9.412 28.6 10.036 28.6 10.82C28.6 11.604 28.356 12.232 27.868 12.704C27.388 13.168 26.74 13.4 25.924 13.4H24.184V17H23.104ZM24.184 12.428H25.924C26.396 12.428 26.772 12.284 27.052 11.996C27.34 11.7 27.484 11.308 27.484 10.82C27.484 10.324 27.34 9.932 27.052 9.644C26.772 9.356 26.396 9.212 25.924 9.212H24.184V12.428ZM30.5393 17V10.4H31.6193V11.66H31.6433C31.6993 11.236 31.8793 10.9 32.1833 10.652C32.4873 10.404 32.8953 10.28 33.4073 10.28C34.0953 10.28 34.6233 10.488 34.9913 10.904C35.3673 11.312 35.5553 11.896 35.5553 12.656V13.22H34.4753V12.656C34.4753 11.696 34.0073 11.216 33.0713 11.216C32.5993 11.216 32.2393 11.352 31.9913 11.624C31.7433 11.896 31.6193 12.288 31.6193 12.8V17H30.5393ZM39.9906 17.096C39.1986 17.096 38.5666 16.864 38.0946 16.4C37.6306 15.936 37.3986 15.288 37.3986 14.456V12.944C37.3986 12.104 37.6306 11.456 38.0946 11C38.5586 10.536 39.1906 10.304 39.9906 10.304C40.7906 10.304 41.4226 10.536 41.8866 11C42.3506 11.456 42.5826 12.104 42.5826 12.944V14.456C42.5826 15.288 42.3466 15.936 41.8746 16.4C41.4106 16.864 40.7826 17.096 39.9906 17.096ZM39.9906 16.136C40.4626 16.136 40.8306 16.004 41.0946 15.74C41.3666 15.476 41.5026 15.088 41.5026 14.576V12.824C41.5026 12.312 41.3666 11.924 41.0946 11.66C40.8306 11.396 40.4626 11.264 39.9906 11.264C39.5266 11.264 39.1586 11.396 38.8866 11.66C38.6146 11.924 38.4786 12.312 38.4786 12.824V14.576C38.4786 15.088 38.6146 15.476 38.8866 15.74C39.1586 16.004 39.5266 16.136 39.9906 16.136ZM44.6659 19.16V18.176H46.1539C46.6499 18.176 47.0339 18.04 47.3059 17.768C47.5859 17.496 47.7259 17.116 47.7259 16.628V11.384H44.6059V10.4H48.8059V16.628C48.8059 17.404 48.5659 18.02 48.0859 18.476C47.6059 18.932 46.9619 19.16 46.1539 19.16H44.6659ZM48.1459 9.212C47.8819 9.212 47.6739 9.144 47.5219 9.008C47.3699 8.872 47.2939 8.688 47.2939 8.456C47.2939 8.216 47.3699 8.028 47.5219 7.892C47.6739 7.748 47.8819 7.676 48.1459 7.676C48.4099 7.676 48.6179 7.748 48.7699 7.892C48.9219 8.028 48.9979 8.216 48.9979 8.456C48.9979 8.688 48.9219 8.872 48.7699 9.008C48.6179 9.144 48.4099 9.212 48.1459 9.212ZM54.3813 17.12C53.6053 17.12 52.9773 16.888 52.4973 16.424C52.0253 15.952 51.7893 15.304 51.7893 14.48V12.92C51.7893 12.096 52.0253 11.452 52.4973 10.988C52.9773 10.516 53.6053 10.28 54.3813 10.28C54.9013 10.28 55.3533 10.384 55.7373 10.592C56.1293 10.8 56.4333 11.092 56.6493 11.468C56.8653 11.844 56.9733 12.288 56.9733 12.8V13.976H52.8453V14.6C52.8453 15.088 52.9853 15.476 53.2653 15.764C53.5453 16.044 53.9173 16.184 54.3813 16.184C54.7813 16.184 55.1093 16.108 55.3653 15.956C55.6293 15.796 55.7893 15.584 55.8453 15.32H56.9253C56.8533 15.872 56.5853 16.312 56.1213 16.64C55.6573 16.96 55.0773 17.12 54.3813 17.12ZM52.8453 13.136H55.9173V12.8C55.9173 12.28 55.7813 11.88 55.5093 11.6C55.2453 11.312 54.8693 11.168 54.3813 11.168C53.8933 11.168 53.5133 11.312 53.2413 11.6C52.9773 11.88 52.8453 12.28 52.8453 12.8V13.136ZM61.6726 17.12C60.8726 17.12 60.2326 16.896 59.7526 16.448C59.2726 16 59.0326 15.384 59.0326 14.6V12.8C59.0326 12.016 59.2726 11.4 59.7526 10.952C60.2326 10.504 60.8726 10.28 61.6726 10.28C62.4326 10.28 63.0446 10.484 63.5086 10.892C63.9806 11.3 64.2286 11.856 64.2526 12.56H63.1726C63.1486 12.136 63.0046 11.812 62.7406 11.588C62.4766 11.356 62.1206 11.24 61.6726 11.24C61.2006 11.24 60.8206 11.376 60.5326 11.648C60.2526 11.912 60.1126 12.292 60.1126 12.788V14.6C60.1126 15.096 60.2526 15.48 60.5326 15.752C60.8206 16.024 61.2006 16.16 61.6726 16.16C62.1206 16.16 62.4766 16.044 62.7406 15.812C63.0046 15.58 63.1486 15.256 63.1726 14.84H64.2526C64.2286 15.544 63.9806 16.1 63.5086 16.508C63.0446 16.916 62.4326 17.12 61.6726 17.12ZM69.4319 17C68.8879 17 68.4519 16.844 68.1239 16.532C67.7959 16.212 67.6319 15.788 67.6319 15.26V11.384H65.7359V10.4H67.6319V8.54H68.7119V10.4H71.4119V11.384H68.7119V15.26C68.7119 15.484 68.7759 15.668 68.9039 15.812C69.0399 15.948 69.2159 16.016 69.4319 16.016H71.3519V17H69.4319ZM80.6665 17V10.4H81.7465V11.66H81.7585C81.8145 11.22 81.9945 10.88 82.2985 10.64C82.6025 10.4 83.0065 10.28 83.5105 10.28C84.1745 10.28 84.7025 10.484 85.0945 10.892C85.4865 11.3 85.6825 11.856 85.6825 12.56V17H84.6025V12.752C84.6025 12.248 84.4745 11.864 84.2185 11.6C83.9705 11.328 83.6305 11.192 83.1985 11.192C82.7505 11.192 82.3945 11.332 82.1305 11.612C81.8745 11.892 81.7465 12.288 81.7465 12.8V17H80.6665ZM89.7818 17.12C89.1018 17.12 88.5618 16.932 88.1618 16.556C87.7618 16.172 87.5618 15.672 87.5618 15.056C87.5618 14.648 87.6538 14.292 87.8378 13.988C88.0218 13.684 88.2778 13.448 88.6058 13.28C88.9338 13.104 89.3098 13.016 89.7338 13.016H91.7738V12.5C91.7738 11.644 91.3058 11.216 90.3698 11.216C89.9538 11.216 89.6178 11.292 89.3618 11.444C89.1058 11.596 88.9698 11.808 88.9538 12.08H87.8738C87.9138 11.56 88.1538 11.132 88.5938 10.796C89.0418 10.452 89.6338 10.28 90.3698 10.28C91.1698 10.28 91.7818 10.472 92.2058 10.856C92.6378 11.24 92.8538 11.776 92.8538 12.464V17H91.7858V15.8H91.7618C91.6978 16.208 91.4938 16.532 91.1498 16.772C90.8058 17.004 90.3498 17.12 89.7818 17.12ZM90.0458 16.208C90.5738 16.208 90.9938 16.08 91.3058 15.824C91.6178 15.568 91.7738 15.22 91.7738 14.78V13.856H89.8538C89.5018 13.856 89.2138 13.964 88.9898 14.18C88.7738 14.388 88.6658 14.668 88.6658 15.02C88.6658 15.388 88.7858 15.68 89.0258 15.896C89.2738 16.104 89.6138 16.208 90.0458 16.208ZM94.6731 17V10.4H95.6091V11.276H95.6331C95.6731 10.98 95.7891 10.74 95.9811 10.556C96.1811 10.372 96.4331 10.28 96.7371 10.28C97.0251 10.28 97.2691 10.364 97.4691 10.532C97.6691 10.7 97.8131 10.928 97.9011 11.216H97.9131C97.9691 10.928 98.0931 10.7 98.2851 10.532C98.4851 10.364 98.7371 10.28 99.0411 10.28C99.4651 10.28 99.8011 10.44 100.049 10.76C100.305 11.072 100.433 11.48 100.433 11.984V17H99.4251V11.972C99.4251 11.708 99.3611 11.5 99.2331 11.348C99.1051 11.188 98.9291 11.108 98.7051 11.108C98.4891 11.108 98.3171 11.184 98.1891 11.336C98.0611 11.488 97.9971 11.696 97.9971 11.96V17H97.1091V11.972C97.1091 11.708 97.0451 11.5 96.9171 11.348C96.7891 11.188 96.6171 11.108 96.4011 11.108C96.1771 11.108 96.0011 11.184 95.8731 11.336C95.7451 11.488 95.6811 11.696 95.6811 11.96V17H94.6731ZM104.748 17.12C103.972 17.12 103.344 16.888 102.864 16.424C102.392 15.952 102.156 15.304 102.156 14.48V12.92C102.156 12.096 102.392 11.452 102.864 10.988C103.344 10.516 103.972 10.28 104.748 10.28C105.268 10.28 105.72 10.384 106.104 10.592C106.496 10.8 106.8 11.092 107.016 11.468C107.232 11.844 107.34 12.288 107.34 12.8V13.976H103.212V14.6C103.212 15.088 103.352 15.476 103.632 15.764C103.912 16.044 104.284 16.184 104.748 16.184C105.148 16.184 105.476 16.108 105.732 15.956C105.996 15.796 106.156 15.584 106.212 15.32H107.292C107.22 15.872 106.952 16.312 106.488 16.64C106.024 16.96 105.444 17.12 104.748 17.12ZM103.212 13.136H106.284V12.8C106.284 12.28 106.148 11.88 105.876 11.6C105.612 11.312 105.236 11.168 104.748 11.168C104.26 11.168 103.88 11.312 103.608 11.6C103.344 11.88 103.212 12.28 103.212 12.8V13.136Z" fill="white"/>
<path d="M117.72 17V10.4H118.656V11.276H118.68C118.72 10.98 118.836 10.74 119.028 10.556C119.228 10.372 119.48 10.28 119.784 10.28C120.072 10.28 120.316 10.364 120.516 10.532C120.716 10.7 120.86 10.928 120.948 11.216H120.96C121.016 10.928 121.14 10.7 121.332 10.532C121.532 10.364 121.784 10.28 122.088 10.28C122.512 10.28 122.848 10.44 123.096 10.76C123.352 11.072 123.48 11.48 123.48 11.984V17H122.472V11.972C122.472 11.708 122.408 11.5 122.28 11.348C122.152 11.188 121.976 11.108 121.752 11.108C121.536 11.108 121.364 11.184 121.236 11.336C121.108 11.488 121.044 11.696 121.044 11.96V17H120.156V11.972C120.156 11.708 120.092 11.5 119.964 11.348C119.836 11.188 119.664 11.108 119.448 11.108C119.224 11.108 119.048 11.184 118.92 11.336C118.792 11.488 118.728 11.696 118.728 11.96V17H117.72ZM126.331 19.16L127.303 16.592L124.843 10.4H126.007L127.567 14.48C127.631 14.64 127.691 14.808 127.747 14.984C127.803 15.16 127.843 15.312 127.867 15.44C127.891 15.312 127.931 15.16 127.987 14.984C128.043 14.808 128.099 14.64 128.155 14.48L129.607 10.4H130.747L127.459 19.16H126.331ZM133.071 13.52V12.56H136.911V13.52H133.071ZM142.57 17.12C142.074 17.12 141.666 17 141.346 16.76C141.026 16.512 140.838 16.172 140.782 15.74H140.77V17H139.69V8.24H140.77V10.16L140.746 11.66H140.758C140.822 11.236 141.014 10.9 141.334 10.652C141.662 10.404 142.074 10.28 142.57 10.28C143.234 10.28 143.762 10.5 144.154 10.94C144.546 11.38 144.742 11.98 144.742 12.74V14.672C144.742 15.424 144.546 16.02 144.154 16.46C143.762 16.9 143.234 17.12 142.57 17.12ZM142.21 16.184C142.666 16.184 143.022 16.064 143.278 15.824C143.534 15.584 143.662 15.196 143.662 14.66V12.74C143.662 12.196 143.534 11.808 143.278 11.576C143.022 11.336 142.666 11.216 142.21 11.216C141.77 11.216 141.418 11.356 141.154 11.636C140.898 11.916 140.77 12.304 140.77 12.8V14.6C140.77 15.096 140.898 15.484 141.154 15.764C141.418 16.044 141.77 16.184 142.21 16.184ZM149.381 17.096C148.589 17.096 147.957 16.864 147.485 16.4C147.021 15.936 146.789 15.288 146.789 14.456V12.944C146.789 12.104 147.021 11.456 147.485 11C147.949 10.536 148.581 10.304 149.381 10.304C150.181 10.304 150.813 10.536 151.277 11C151.741 11.456 151.973 12.104 151.973 12.944V14.456C151.973 15.288 151.737 15.936 151.265 16.4C150.801 16.864 150.173 17.096 149.381 17.096ZM149.381 16.136C149.853 16.136 150.221 16.004 150.485 15.74C150.757 15.476 150.893 15.088 150.893 14.576V12.824C150.893 12.312 150.757 11.924 150.485 11.66C150.221 11.396 149.853 11.264 149.381 11.264C148.917 11.264 148.549 11.396 148.277 11.66C148.005 11.924 147.869 12.312 147.869 12.824V14.576C147.869 15.088 148.005 15.476 148.277 15.74C148.549 16.004 148.917 16.136 149.381 16.136ZM157.237 17C156.693 17 156.257 16.844 155.929 16.532C155.601 16.212 155.437 15.788 155.437 15.26V11.384H153.541V10.4H155.437V8.54H156.517V10.4H159.217V11.384H156.517V15.26C156.517 15.484 156.581 15.668 156.709 15.812C156.845 15.948 157.021 16.016 157.237 16.016H159.157V17H157.237ZM161.072 18.32L165.332 7.04H166.472L162.212 18.32H161.072Z" fill="#727272"/>
<path d="M117 19.16H167.372V19.76H117V19.16Z" fill="#727272"/>
<path d="M9 39.8V21.56H10.2V39.8H9Z" fill="#0FA8CD"/>
<path d="M25.6 35.12C24.784 35.12 24.16 34.896 23.728 34.448C23.296 33.992 23.08 33.376 23.08 32.6V26.24H24.16V32.6C24.16 33.08 24.276 33.46 24.508 33.74C24.748 34.02 25.112 34.16 25.6 34.16C26.08 34.16 26.44 34.02 26.68 33.74C26.92 33.46 27.04 33.08 27.04 32.6V26.24H28.12V32.6C28.12 33.384 27.904 34 27.472 34.448C27.048 34.896 26.424 35.12 25.6 35.12ZM32.5313 35.096C31.7953 35.096 31.2233 34.932 30.8153 34.604C30.4153 34.268 30.2153 33.796 30.2153 33.188H31.2953C31.2953 33.492 31.4033 33.732 31.6193 33.908C31.8353 34.076 32.1393 34.16 32.5313 34.16H33.0593C33.4593 34.16 33.7673 34.072 33.9833 33.896C34.2073 33.72 34.3193 33.472 34.3193 33.152C34.3193 32.584 34.0593 32.264 33.5393 32.192L31.7153 31.928C31.2673 31.864 30.9193 31.68 30.6713 31.376C30.4233 31.064 30.2993 30.656 30.2993 30.152C30.2993 29.576 30.4953 29.124 30.8873 28.796C31.2873 28.468 31.8353 28.304 32.5313 28.304H33.0593C33.6993 28.304 34.2193 28.464 34.6193 28.784C35.0273 29.096 35.2473 29.508 35.2793 30.02H34.1873C34.1713 29.788 34.0593 29.596 33.8513 29.444C33.6513 29.292 33.3873 29.216 33.0593 29.216H32.5313C32.1633 29.216 31.8753 29.3 31.6673 29.468C31.4593 29.636 31.3553 29.864 31.3553 30.152C31.3553 30.616 31.5673 30.88 31.9913 30.944L33.6953 31.184C34.8153 31.344 35.3753 32 35.3753 33.152C35.3753 33.768 35.1713 34.248 34.7633 34.592C34.3633 34.928 33.7953 35.096 33.0593 35.096H32.5313ZM39.9906 35.12C39.2146 35.12 38.5866 34.888 38.1066 34.424C37.6346 33.952 37.3986 33.304 37.3986 32.48V30.92C37.3986 30.096 37.6346 29.452 38.1066 28.988C38.5866 28.516 39.2146 28.28 39.9906 28.28C40.5106 28.28 40.9626 28.384 41.3466 28.592C41.7386 28.8 42.0426 29.092 42.2586 29.468C42.4746 29.844 42.5826 30.288 42.5826 30.8V31.976H38.4546V32.6C38.4546 33.088 38.5946 33.476 38.8746 33.764C39.1546 34.044 39.5266 34.184 39.9906 34.184C40.3906 34.184 40.7186 34.108 40.9746 33.956C41.2386 33.796 41.3986 33.584 41.4546 33.32H42.5346C42.4626 33.872 42.1946 34.312 41.7306 34.64C41.2666 34.96 40.6866 35.12 39.9906 35.12ZM38.4546 31.136H41.5266V30.8C41.5266 30.28 41.3906 29.88 41.1186 29.6C40.8546 29.312 40.4786 29.168 39.9906 29.168C39.5026 29.168 39.1226 29.312 38.8506 29.6C38.5866 29.88 38.4546 30.28 38.4546 30.8V31.136ZM52.5933 29.84L52.4973 26.24H53.7213L53.6373 29.84H52.5933ZM55.1373 29.84L55.0413 26.24H56.2653L56.1813 29.84H55.1373ZM61.5766 35.12C61.2806 35.12 61.0406 35.032 60.8566 34.856C60.6806 34.68 60.5926 34.452 60.5926 34.172C60.5926 33.876 60.6806 33.636 60.8566 33.452C61.0406 33.268 61.2806 33.176 61.5766 33.176C61.8726 33.176 62.1086 33.268 62.2846 33.452C62.4686 33.636 62.5606 33.876 62.5606 34.172C62.5606 34.452 62.4686 34.68 62.2846 34.856C62.1086 35.032 61.8726 35.12 61.5766 35.12ZM66.9839 29.84L66.8879 26.24H68.1119L68.0279 29.84H66.9839ZM69.5279 29.84L69.4319 26.24H70.6559L70.5719 29.84H69.5279ZM83.8225 35C83.2785 35 82.8425 34.844 82.5145 34.532C82.1865 34.212 82.0225 33.788 82.0225 33.26V29.384H80.1265V28.4H82.0225V26.54H83.1025V28.4H85.8025V29.384H83.1025V33.26C83.1025 33.484 83.1665 33.668 83.2945 33.812C83.4305 33.948 83.6065 34.016 83.8225 34.016H85.7425V35H83.8225ZM90.3578 35.096C89.5658 35.096 88.9338 34.864 88.4618 34.4C87.9978 33.936 87.7658 33.288 87.7658 32.456V30.944C87.7658 30.104 87.9978 29.456 88.4618 29C88.9258 28.536 89.5578 28.304 90.3578 28.304C91.1578 28.304 91.7898 28.536 92.2538 29C92.7178 29.456 92.9498 30.104 92.9498 30.944V32.456C92.9498 33.288 92.7138 33.936 92.2418 34.4C91.7778 34.864 91.1498 35.096 90.3578 35.096ZM90.3578 34.136C90.8298 34.136 91.1978 34.004 91.4618 33.74C91.7338 33.476 91.8698 33.088 91.8698 32.576V30.824C91.8698 30.312 91.7338 29.924 91.4618 29.66C91.1978 29.396 90.8298 29.264 90.3578 29.264C89.8938 29.264 89.5258 29.396 89.2538 29.66C88.9818 29.924 88.8458 30.312 88.8458 30.824V32.576C88.8458 33.088 88.9818 33.476 89.2538 33.74C89.5258 34.004 89.8938 34.136 90.3578 34.136ZM104.844 35.12C104.044 35.12 103.404 34.896 102.924 34.448C102.444 34 102.204 33.384 102.204 32.6V30.8C102.204 30.016 102.444 29.4 102.924 28.952C103.404 28.504 104.044 28.28 104.844 28.28C105.604 28.28 106.216 28.484 106.68 28.892C107.152 29.3 107.4 29.856 107.424 30.56H106.344C106.32 30.136 106.176 29.812 105.912 29.588C105.648 29.356 105.292 29.24 104.844 29.24C104.372 29.24 103.992 29.376 103.704 29.648C103.424 29.912 103.284 30.292 103.284 30.788V32.6C103.284 33.096 103.424 33.48 103.704 33.752C103.992 34.024 104.372 34.16 104.844 34.16C105.292 34.16 105.648 34.044 105.912 33.812C106.176 33.58 106.32 33.256 106.344 32.84H107.424C107.4 33.544 107.152 34.1 106.68 34.508C106.216 34.916 105.604 35.12 104.844 35.12ZM109.688 35V28.4H110.768V29.66H110.792C110.848 29.236 111.028 28.9 111.332 28.652C111.636 28.404 112.044 28.28 112.556 28.28C113.244 28.28 113.772 28.488 114.14 28.904C114.516 29.312 114.704 29.896 114.704 30.656V31.22H113.624V30.656C113.624 29.696 113.156 29.216 112.22 29.216C111.748 29.216 111.388 29.352 111.14 29.624C110.892 29.896 110.768 30.288 110.768 30.8V35H109.688ZM119.139 35.12C118.363 35.12 117.735 34.888 117.255 34.424C116.783 33.952 116.547 33.304 116.547 32.48V30.92C116.547 30.096 116.783 29.452 117.255 28.988C117.735 28.516 118.363 28.28 119.139 28.28C119.659 28.28 120.111 28.384 120.495 28.592C120.887 28.8 121.191 29.092 121.407 29.468C121.623 29.844 121.731 30.288 121.731 30.8V31.976H117.603V32.6C117.603 33.088 117.743 33.476 118.023 33.764C118.303 34.044 118.675 34.184 119.139 34.184C119.539 34.184 119.867 34.108 120.123 33.956C120.387 33.796 120.547 33.584 120.603 33.32H121.683C121.611 33.872 121.343 34.312 120.879 34.64C120.415 34.96 119.835 35.12 119.139 35.12ZM117.603 31.136H120.675V30.8C120.675 30.28 120.539 29.88 120.267 29.6C120.003 29.312 119.627 29.168 119.139 29.168C118.651 29.168 118.271 29.312 117.999 29.6C117.735 29.88 117.603 30.28 117.603 30.8V31.136ZM125.758 35.12C125.078 35.12 124.538 34.932 124.138 34.556C123.738 34.172 123.538 33.672 123.538 33.056C123.538 32.648 123.63 32.292 123.814 31.988C123.998 31.684 124.254 31.448 124.582 31.28C124.91 31.104 125.286 31.016 125.71 31.016H127.75V30.5C127.75 29.644 127.282 29.216 126.346 29.216C125.93 29.216 125.594 29.292 125.338 29.444C125.082 29.596 124.946 29.808 124.93 30.08H123.85C123.89 29.56 124.13 29.132 124.57 28.796C125.018 28.452 125.61 28.28 126.346 28.28C127.146 28.28 127.758 28.472 128.182 28.856C128.614 29.24 128.83 29.776 128.83 30.464V35H127.762V33.8H127.738C127.674 34.208 127.47 34.532 127.126 34.772C126.782 35.004 126.326 35.12 125.758 35.12ZM126.022 34.208C126.55 34.208 126.97 34.08 127.282 33.824C127.594 33.568 127.75 33.22 127.75 32.78V31.856H125.83C125.478 31.856 125.19 31.964 124.966 32.18C124.75 32.388 124.642 32.668 124.642 33.02C124.642 33.388 124.762 33.68 125.002 33.896C125.25 34.104 125.59 34.208 126.022 34.208ZM134.19 35C133.646 35 133.21 34.844 132.882 34.532C132.554 34.212 132.39 33.788 132.39 33.26V29.384H130.494V28.4H132.39V26.54H133.47V28.4H136.17V29.384H133.47V33.26C133.47 33.484 133.534 33.668 133.662 33.812C133.798 33.948 133.974 34.016 134.19 34.016H136.11V35H134.19ZM140.725 35.12C139.949 35.12 139.321 34.888 138.841 34.424C138.369 33.952 138.133 33.304 138.133 32.48V30.92C138.133 30.096 138.369 29.452 138.841 28.988C139.321 28.516 139.949 28.28 140.725 28.28C141.245 28.28 141.697 28.384 142.081 28.592C142.473 28.8 142.777 29.092 142.993 29.468C143.209 29.844 143.317 30.288 143.317 30.8V31.976H139.189V32.6C139.189 33.088 139.329 33.476 139.609 33.764C139.889 34.044 140.261 34.184 140.725 34.184C141.125 34.184 141.453 34.108 141.709 33.956C141.973 33.796 142.133 33.584 142.189 33.32H143.269C143.197 33.872 142.929 34.312 142.465 34.64C142.001 34.96 141.421 35.12 140.725 35.12ZM139.189 31.136H142.261V30.8C142.261 30.28 142.125 29.88 141.853 29.6C141.589 29.312 141.213 29.168 140.725 29.168C140.237 29.168 139.857 29.312 139.585 29.6C139.321 29.88 139.189 30.28 139.189 30.8V31.136ZM152.536 35V34.016H154.876V29.384H152.776V28.4H155.956V34.016H158.176V35H152.536ZM155.296 27.212C155.032 27.212 154.824 27.144 154.672 27.008C154.52 26.872 154.444 26.688 154.444 26.456C154.444 26.216 154.52 26.028 154.672 25.892C154.824 25.748 155.032 25.676 155.296 25.676C155.56 25.676 155.768 25.748 155.92 25.892C156.072 26.028 156.148 26.216 156.148 26.456C156.148 26.688 156.072 26.872 155.92 27.008C155.768 27.144 155.56 27.212 155.296 27.212ZM159.815 35V28.4H160.895V29.66H160.907C160.963 29.22 161.143 28.88 161.447 28.64C161.751 28.4 162.155 28.28 162.659 28.28C163.323 28.28 163.851 28.484 164.243 28.892C164.635 29.3 164.831 29.856 164.831 30.56V35H163.751V30.752C163.751 30.248 163.623 29.864 163.367 29.6C163.119 29.328 162.779 29.192 162.347 29.192C161.899 29.192 161.543 29.332 161.279 29.612C161.023 29.892 160.895 30.288 160.895 30.8V35H159.815ZM177.362 35C176.818 35 176.382 34.844 176.054 34.532C175.726 34.212 175.562 33.788 175.562 33.26V29.384H173.666V28.4H175.562V26.54H176.642V28.4H179.342V29.384H176.642V33.26C176.642 33.484 176.706 33.668 176.834 33.812C176.97 33.948 177.146 34.016 177.362 34.016H179.282V35H177.362ZM181.401 35V26.24H182.481V29.66H182.493C182.549 29.22 182.729 28.88 183.033 28.64C183.337 28.4 183.741 28.28 184.245 28.28C184.909 28.28 185.437 28.484 185.829 28.892C186.221 29.3 186.417 29.856 186.417 30.56V35H185.337V30.74C185.337 30.244 185.209 29.864 184.953 29.6C184.705 29.328 184.365 29.192 183.933 29.192C183.485 29.192 183.129 29.332 182.865 29.612C182.609 29.892 182.481 30.288 182.481 30.8V35H181.401ZM188.512 35V34.016H190.852V29.384H188.752V28.4H191.932V34.016H194.152V35H188.512ZM191.272 27.212C191.008 27.212 190.8 27.144 190.648 27.008C190.496 26.872 190.42 26.688 190.42 26.456C190.42 26.216 190.496 26.028 190.648 25.892C190.8 25.748 191.008 25.676 191.272 25.676C191.536 25.676 191.744 25.748 191.896 25.892C192.048 26.028 192.124 26.216 192.124 26.456C192.124 26.688 192.048 26.872 191.896 27.008C191.744 27.144 191.536 27.212 191.272 27.212ZM198.024 35.096C197.288 35.096 196.716 34.932 196.308 34.604C195.908 34.268 195.708 33.796 195.708 33.188H196.788C196.788 33.492 196.896 33.732 197.112 33.908C197.328 34.076 197.632 34.16 198.024 34.16H198.552C198.952 34.16 199.26 34.072 199.476 33.896C199.7 33.72 199.812 33.472 199.812 33.152C199.812 32.584 199.552 32.264 199.032 32.192L197.208 31.928C196.76 31.864 196.412 31.68 196.164 31.376C195.916 31.064 195.792 30.656 195.792 30.152C195.792 29.576 195.988 29.124 196.38 28.796C196.78 28.468 197.328 28.304 198.024 28.304H198.552C199.192 28.304 199.712 28.464 200.112 28.784C200.52 29.096 200.74 29.508 200.772 30.02H199.68C199.664 29.788 199.552 29.596 199.344 29.444C199.144 29.292 198.88 29.216 198.552 29.216H198.024C197.656 29.216 197.368 29.3 197.16 29.468C196.952 29.636 196.848 29.864 196.848 30.152C196.848 30.616 197.06 30.88 197.484 30.944L199.188 31.184C200.308 31.344 200.868 32 200.868 33.152C200.868 33.768 200.664 34.248 200.256 34.592C199.856 34.928 199.288 35.096 198.552 35.096H198.024ZM212.294 35.12C211.638 35.12 211.11 34.9 210.71 34.46C210.318 34.02 210.122 33.424 210.122 32.672V30.74C210.122 29.98 210.318 29.38 210.71 28.94C211.102 28.5 211.63 28.28 212.294 28.28C212.79 28.28 213.198 28.404 213.518 28.652C213.846 28.9 214.042 29.236 214.106 29.66H214.118L214.094 28.16V26.24H215.174V35H214.094V33.74H214.082C214.026 34.172 213.838 34.512 213.518 34.76C213.198 35 212.79 35.12 212.294 35.12ZM212.654 34.184C213.102 34.184 213.454 34.044 213.71 33.764C213.966 33.484 214.094 33.096 214.094 32.6V30.8C214.094 30.304 213.966 29.916 213.71 29.636C213.454 29.356 213.102 29.216 212.654 29.216C212.198 29.216 211.842 29.336 211.586 29.576C211.33 29.808 211.202 30.196 211.202 30.74V32.66C211.202 33.196 211.33 33.584 211.586 33.824C211.842 34.064 212.198 34.184 212.654 34.184ZM217.293 35V34.016H219.633V29.384H217.533V28.4H220.713V34.016H222.933V35H217.293ZM220.053 27.212C219.789 27.212 219.581 27.144 219.429 27.008C219.277 26.872 219.201 26.688 219.201 26.456C219.201 26.216 219.277 26.028 219.429 25.892C219.581 25.748 219.789 25.676 220.053 25.676C220.317 25.676 220.525 25.748 220.677 25.892C220.829 26.028 220.905 26.216 220.905 26.456C220.905 26.688 220.829 26.872 220.677 27.008C220.525 27.144 220.317 27.212 220.053 27.212ZM224.813 35V28.4H225.893V29.66H225.917C225.973 29.236 226.153 28.9 226.457 28.652C226.761 28.404 227.169 28.28 227.681 28.28C228.369 28.28 228.897 28.488 229.265 28.904C229.641 29.312 229.829 29.896 229.829 30.656V31.22H228.749V30.656C228.749 29.696 228.281 29.216 227.345 29.216C226.873 29.216 226.513 29.352 226.265 29.624C226.017 29.896 225.893 30.288 225.893 30.8V35H224.813ZM234.264 35.12C233.488 35.12 232.86 34.888 232.38 34.424C231.908 33.952 231.672 33.304 231.672 32.48V30.92C231.672 30.096 231.908 29.452 232.38 28.988C232.86 28.516 233.488 28.28 234.264 28.28C234.784 28.28 235.236 28.384 235.62 28.592C236.012 28.8 236.316 29.092 236.532 29.468C236.748 29.844 236.856 30.288 236.856 30.8V31.976H232.728V32.6C232.728 33.088 232.868 33.476 233.148 33.764C233.428 34.044 233.8 34.184 234.264 34.184C234.664 34.184 234.992 34.108 235.248 33.956C235.512 33.796 235.672 33.584 235.728 33.32H236.808C236.736 33.872 236.468 34.312 236.004 34.64C235.54 34.96 234.96 35.12 234.264 35.12ZM232.728 31.136H235.8V30.8C235.8 30.28 235.664 29.88 235.392 29.6C235.128 29.312 234.752 29.168 234.264 29.168C233.776 29.168 233.396 29.312 233.124 29.6C232.86 29.88 232.728 30.28 232.728 30.8V31.136ZM241.555 35.12C240.755 35.12 240.115 34.896 239.635 34.448C239.155 34 238.915 33.384 238.915 32.6V30.8C238.915 30.016 239.155 29.4 239.635 28.952C240.115 28.504 240.755 28.28 241.555 28.28C242.315 28.28 242.927 28.484 243.391 28.892C243.863 29.3 244.111 29.856 244.135 30.56H243.055C243.031 30.136 242.887 29.812 242.623 29.588C242.359 29.356 242.003 29.24 241.555 29.24C241.083 29.24 240.703 29.376 240.415 29.648C240.135 29.912 239.995 30.292 239.995 30.788V32.6C239.995 33.096 240.135 33.48 240.415 33.752C240.703 34.024 241.083 34.16 241.555 34.16C242.003 34.16 242.359 34.044 242.623 33.812C242.887 33.58 243.031 33.256 243.055 32.84H244.135C244.111 33.544 243.863 34.1 243.391 34.508C242.927 34.916 242.315 35.12 241.555 35.12ZM249.315 35C248.771 35 248.335 34.844 248.007 34.532C247.679 34.212 247.515 33.788 247.515 33.26V29.384H245.619V28.4H247.515V26.54H248.595V28.4H251.295V29.384H248.595V33.26C248.595 33.484 248.659 33.668 248.787 33.812C248.923 33.948 249.099 34.016 249.315 34.016H251.235V35H249.315ZM255.85 35.096C255.058 35.096 254.426 34.864 253.954 34.4C253.49 33.936 253.258 33.288 253.258 32.456V30.944C253.258 30.104 253.49 29.456 253.954 29C254.418 28.536 255.05 28.304 255.85 28.304C256.65 28.304 257.282 28.536 257.746 29C258.21 29.456 258.442 30.104 258.442 30.944V32.456C258.442 33.288 258.206 33.936 257.734 34.4C257.27 34.864 256.642 35.096 255.85 35.096ZM255.85 34.136C256.322 34.136 256.69 34.004 256.954 33.74C257.226 33.476 257.362 33.088 257.362 32.576V30.824C257.362 30.312 257.226 29.924 256.954 29.66C256.69 29.396 256.322 29.264 255.85 29.264C255.386 29.264 255.018 29.396 254.746 29.66C254.474 29.924 254.338 30.312 254.338 30.824V32.576C254.338 33.088 254.474 33.476 254.746 33.74C255.018 34.004 255.386 34.136 255.85 34.136ZM260.789 35V28.4H261.869V29.66H261.893C261.949 29.236 262.129 28.9 262.433 28.652C262.737 28.404 263.145 28.28 263.657 28.28C264.345 28.28 264.873 28.488 265.241 28.904C265.617 29.312 265.805 29.896 265.805 30.656V31.22H264.725V30.656C264.725 29.696 264.257 29.216 263.321 29.216C262.849 29.216 262.489 29.352 262.241 29.624C261.993 29.896 261.869 30.288 261.869 30.8V35H260.789ZM268.777 37.16L269.749 34.592L267.289 28.4H268.453L270.013 32.48C270.077 32.64 270.137 32.808 270.193 32.984C270.249 33.16 270.289 33.312 270.313 33.44C270.337 33.312 270.377 33.16 270.433 32.984C270.489 32.808 270.545 32.64 270.601 32.48L272.053 28.4H273.193L269.905 37.16H268.777Z" fill="#727272"/>
<path d="M9 49.16V39.56H10.2V47.96H13.44V49.16H9Z" fill="#0FA8CD"/>
</g>
<defs>
<filter id="filter0_d_482_46" x="-1" y="0" width="284" height="64" filterUnits="userSpaceOnUse" color-interpolation-filters="sRGB">
<feFlood flood-opacity="0" result="BackgroundImageFix"/>
<feColorMatrix in="SourceAlpha" type="matrix" values="0 0 0 0 0 0 0 0 0 0 0 0 0 0 0 0 0 0 127 0" result="hardAlpha"/>
<feOffset dx="1" dy="1"/>
<feGaussianBlur stdDeviation="3"/>
<feComposite in2="hardAlpha" operator="out"/>
<feColorMatrix type="matrix" values="0 0 0 0 0 0 0 0 0 0 0 0 0 0 0 0 0 0 0.18 0"/>
<feBlend mode="normal" in2="BackgroundImageFix" result="effect1_dropShadow_482_46"/>
<feBlend mode="normal" in="SourceGraphic" in2="effect1_dropShadow_482_46" result="shape"/>
</filter>
</defs>
</svg>
